<svg width="64" height="64" viewBox="0 0 64 64" fill="none"
  xmlns="http://www.w3.org/2000/svg">
  <rect width="64" height="64" rx="8" fill="white"/>
  <path d="M7.80634 29.9418L7.5 30.0705V30.4028V34.2569V34.5884L7.80532 34.7175L21.1123 40.3425L21.619 40.5567L21.7839 40.0318L22.9622 36.2818L23.1022 35.836L22.6668 35.6661L14.1581 32.3472L22.6668 29.0283L23.1022 28.8585L22.9622 28.4126L21.7839 24.6626L21.6194 24.1389L21.1133 24.3515L7.80634 29.9418ZM29.8317 47.5H30.1963L30.3077 47.1529L39.9414 17.1529L40.1511 16.5H39.4653H35.099H34.7352L34.6233 16.8461L24.9203 46.8461L24.7088 47.5H25.396H29.8317ZM57.1947 34.7522L57.5 34.6231V34.2917V30.4375V30.1052L57.1937 29.9765L43.8867 24.3862L43.3849 24.1754L43.2173 24.6934L42.0045 28.4434L41.8593 28.8923L42.2991 29.0633L50.8376 32.3819L42.2991 35.7006L41.8593 35.8716L42.0045 36.3205L43.2173 40.0705L43.3852 40.5896L43.8877 40.3772L57.1947 34.7522Z" fill="black" stroke="black"/>
</svg>
