<svg id="shape" width="24" height="24"
  xmlns="http://www.w3.org/2000/svg">
  <path d="M20.57 3.01c-.33-.03-.7.02-1.06.16L5.44 9.08 3.27 10c-.85.34-1.27.9-1.27 1.64 0 .52.22 1.23 1.28 1.65l3.66 1.47c.32.95 1.06 3.16 1.24 3.74.11.35.39 1.23 1.1 1.43.14.05.29.08.44.08.44 0 .76-.2.92-.33l2.33-1.97 2.83 2.62c.1.1.68.67 1.46.67.96 0 1.7-.8 1.85-1.59L21.92 5.3c.25-1.1-.2-1.67-.47-1.91-.25-.21-.55-.33-.88-.37zm-.66 2.16l-2.75 13.7-4.13-3.83-2.81 2.38.78-3.05 5.68-5.74c.26-.25.32-.34.32-.43 0-.12-.06-.2-.2-.2-.13 0-.3.12-.39.17-1.14.72-6.01 3.5-8.4 4.85l-3.48-1.38 1.68-.71c4.3-1.81 11.96-5.04 13.7-5.76z" />
</svg>
